<?xml version="1.0" standalone="no"?>
<!DOCTYPE svg PUBLIC "-//W3C//DTD SVG 20010904//EN"
 "http://www.w3.org/TR/2001/REC-SVG-20010904/DTD/svg10.dtd">
<svg version="1.0" xmlns="http://www.w3.org/2000/svg"
 width="464.000000pt" height="464.000000pt" viewBox="0 0 464.000000 464.000000"
 preserveAspectRatio="xMidYMid meet">
<metadata>
Created by potrace 1.11, written by Peter Selinger 2001-2013
</metadata>
<g transform="translate(0.000000,464.000000) scale(0.100000,-0.100000)"
fill="#000000" stroke="none">
<path d="M2264 4401 c-17 -4 -44 -15 -60 -23 -16 -9 -43 -23 -61 -32 -35 -19
-166 -111 -234 -166 -140 -113 -406 -401 -499 -541 -139 -209 -177 -345 -206
-744 -6 -96 -11 -136 -17 -141 -2 -2 -64 60 -138 138 -212 225 -494 508 -561
563 -330 273 -435 181 -464 -405 -14 -277 -7 -980 12 -1140 34 -301 61 -386
170 -520 86 -107 103 -172 64 -240 -67 -118 -97 -205 -115 -335 -3 -22 -7 -53
-10 -70 -2 -16 -7 -143 -11 -282 l-6 -252 2193 2 2194 2 -1 50 c0 28 -2 140
-3 250 -5 302 -46 502 -131 625 -29 43 -37 82 -26 122 10 35 64 117 77 118 3
0 31 37 62 83 l56 82 6 110 c6 119 11 215 20 395 3 63 8 153 10 200 2 47 7
141 10 210 3 69 8 150 10 180 7 99 18 442 18 580 0 220 -15 297 -66 342 -28
25 -36 27 -111 25 -71 -3 -90 -7 -155 -40 -97 -49 -235 -147 -327 -232 -57
-52 -159 -153 -204 -201 -30 -33 -110 -118 -176 -189 -67 -72 -135 -145 -152
-162 -16 -18 -32 -33 -34 -33 -2 0 -4 107 -5 238 0 352 -10 426 -77 562 -60
121 -156 239 -371 455 -141 142 -225 213 -354 299 -157 104 -248 137 -327 117z"/>
</g>
</svg>
